<?xml version="1.0" standalone="no"?>
<!DOCTYPE svg PUBLIC "-//W3C//DTD SVG 20010904//EN"
 "http://www.w3.org/TR/2001/REC-SVG-20010904/DTD/svg10.dtd">
<svg version="1.0" xmlns="http://www.w3.org/2000/svg"
 width="1200.000000pt" height="1200.000000pt" viewBox="0 0 1200.000000 1200.000000"
 preserveAspectRatio="xMidYMid meet">

<g transform="translate(0.000000,1200.000000) scale(0.100000,-0.100000)"
fill="#000000" stroke="none">
<path d="M5645 10639 c-2267 -136 -4128 -1880 -4414 -4137 -115 -908 36 -1835
433 -2657 699 -1446 2083 -2443 3671 -2644 1109 -140 2221 110 3160 712 287
184 524 376 786 637 200 200 298 311 444 505 866 1152 1160 2626 803 4030 -82
325 -180 588 -338 910 -359 734 -895 1354 -1580 1827 -244 168 -626 372 -910
486 -645 258 -1356 373 -2055 331z m2617 -1790 c201 -42 381 -214 433 -416 13
-50 15 -328 15 -2159 l0 -2102 -21 -68 c-61 -199 -220 -349 -421 -398 l-28 -6
0 1987 c0 1340 -4 2009 -11 2053 -26 161 -86 277 -209 401 -94 95 -174 146
-298 188 l-77 26 -1839 3 -1839 2 7 48 c9 70 75 199 135 264 82 89 196 156
306 178 65 13 3784 12 3847 -1z m-687 -734 c204 -52 368 -216 420 -420 13 -52
15 -310 15 -2142 0 -1490 -3 -2097 -11 -2135 -49 -233 -245 -414 -482 -447
-54 -8 -642 -11 -1895 -11 -1524 1 -1830 3 -1897 15 -196 35 -358 172 -436
370 l-24 60 -3 2110 c-2 1586 0 2124 9 2165 44 209 214 383 424 436 39 10 466
12 1935 13 1657 1 1893 -1 1945 -14z"/>
<path d="M7107 7789 c-99 -23 -192 -92 -231 -171 -32 -65 -35 -162 -7 -223 38
-84 176 -179 311 -215 60 -16 130 -53 156 -82 32 -34 37 -62 20 -103 -24 -56
-84 -78 -200 -73 -77 3 -101 9 -156 36 -36 17 -75 39 -87 47 -21 16 -22 15
-71 -80 l-49 -96 51 -30 c88 -51 169 -72 297 -77 129 -5 194 8 282 56 151 82
208 260 130 404 -45 82 -120 131 -288 188 -148 50 -195 84 -195 141 0 34 47
76 96 85 67 12 176 -1 239 -30 32 -14 59 -25 60 -24 10 11 95 161 95 167 0 12
-104 60 -166 76 -63 16 -225 19 -287 4z"/>
<path d="M3720 7259 l0 -530 108 3 107 3 3 344 2 344 38 -54 c21 -30 130 -186
241 -346 l203 -293 94 0 94 0 0 529 0 529 -107 -1 -108 -2 -5 -331 -5 -332
-229 325 c-128 182 -238 328 -250 333 -12 4 -58 8 -103 8 l-83 0 0 -529z"/>
<path d="M4756 7783 c-3 -4 -6 -242 -6 -530 l0 -523 350 0 350 0 0 100 0 100
-240 0 -240 0 0 130 0 130 215 0 215 0 0 95 0 95 -215 0 -215 0 0 105 0 104
244 3 244 3 128 -430 129 -430 94 0 94 0 116 348 117 349 115 -349 115 -348
89 -3 c48 -2 92 1 97 6 10 10 317 1035 312 1043 -2 4 -53 7 -114 8 -106 2
-110 1 -120 -21 -6 -13 -46 -160 -90 -327 -69 -261 -90 -334 -90 -309 0 2 -33
101 -73 219 -41 118 -90 264 -111 324 l-36 110 -89 3 c-62 2 -91 -1 -98 -10
-6 -7 -56 -152 -113 -323 -56 -170 -106 -314 -110 -318 -6 -7 -56 172 -153
548 -11 44 -25 86 -30 93 -8 10 -104 12 -442 12 -238 -1 -435 -4 -439 -7z"/>
<path d="M3823 6460 c-59 -12 -96 -34 -135 -80 -102 -118 -64 -302 75 -369
l44 -21 1807 0 1806 0 46 21 c75 36 134 129 134 214 0 85 -59 178 -137 217
l-48 23 -1775 1 c-976 1 -1794 -2 -1817 -6z"/>
<path d="M3762 5604 c-113 -56 -164 -197 -113 -309 27 -61 102 -122 164 -135
37 -8 555 -10 1832 -8 l1780 3 40 22 c142 76 176 251 72 369 -81 92 116 84
-1923 84 l-1800 0 -52 -26z"/>
<path d="M3800 4788 c-35 -10 -93 -48 -118 -78 -78 -92 -63 -263 30 -333 80
-61 -61 -57 1905 -57 1720 0 1800 1 1838 19 89 40 139 121 139 221 0 95 -43
167 -129 213 l-40 22 -1795 2 c-1172 1 -1807 -2 -1830 -9z"/>
<path d="M3762 3939 c-105 -52 -156 -173 -120 -291 15 -52 78 -121 130 -144
41 -18 111 -19 1813 -22 1230 -2 1786 1 1822 8 218 46 260 345 63 445 l-49 25
-1808 0 -1808 0 -43 -21z"/>
</g>
</svg>
